<svg xmlns="http://www.w3.org/2000/svg" width="46.688" height="42.78" viewBox="0 0 46.688 42.78">
  <defs>
    <style>
      .cls-1 {
        fill: #262626;
        fill-rule: evenodd;
      }
    </style>
  </defs>
  <path id="icon-cart.svg" class="cls-1" d="M637.064,1913.01a2.671,2.671,0,0,0-2.092-1.02H607.855a2.662,2.662,0,0,0-2.538,3.48l4.991,15.61a1.664,1.664,0,0,0,1.579,1.15h20.3a1.663,1.663,0,0,0,1.612-1.27l3.761-15.68A2.666,2.666,0,0,0,637.064,1913.01Zm-0.641,22.17H610.236a2.123,2.123,0,0,1-2.029-1.47L601,1911.35a5.077,5.077,0,0,0-4.845-3.53h-1.576a2.43,2.43,0,0,0,0,4.86h1.576a0.243,0.243,0,0,1,.225.16l7.208,22.36a6.974,6.974,0,0,0,6.65,4.84h26.187A2.43,2.43,0,0,0,636.423,1935.18Zm-24.466,7.66a3.87,3.87,0,1,0,3.871,3.87A3.869,3.869,0,0,0,611.957,1942.84Zm20.329,0a3.87,3.87,0,1,0,3.871,3.87A3.869,3.869,0,0,0,632.286,1942.84Z" transform="translate(-592.156 -1907.81)"/>
</svg>
