<svg xmlns="http://www.w3.org/2000/svg" width="53.688" height="47.62" viewBox="0 0 53.688 47.62">
  <defs>
    <style>
      .cls-1 {
        fill: #262626;
        fill-rule: evenodd;
      }
    </style>
  </defs>
  <path id="icon-quality.svg" class="cls-1" d="M618.285,2041.73a11.981,11.981,0,0,0,.878-3.92,12.5,12.5,0,0,0-2.567-8.32,10.59,10.59,0,0,0-3.293-2.87,7.054,7.054,0,0,0-3.363-.92,3.494,3.494,0,0,0-1.031.17c-0.225.07-.345,0.11-0.345,0.11s0.029,0.12.074,0.35c0.048,0.21.054,0.58,0.088,0.92a20.908,20.908,0,0,1-.133,2.65,16.774,16.774,0,0,0,.584,6.46,15.206,15.206,0,0,0,1.418,3.26,17.29,17.29,0,0,0,2.02,2.81c0.655,0.72,2.133,2.41,2.669,2.83a24.685,24.685,0,0,0,.276-2.92c0.056-.7.01-1.39,0-2.08s-0.136-1.35-.194-2c-0.116-.64-0.274-1.25-0.4-1.84q-0.311-.84-0.577-1.59c-0.251-.46-0.48-0.88-0.683-1.26a5.138,5.138,0,0,0-.643-0.89c-0.385-.49-0.606-0.76-0.606-0.76s0.241,0.25.658,0.71a5.331,5.331,0,0,1,.718.86c0.234,0.37.5,0.78,0.787,1.23,0.22,0.49.457,1.02,0.71,1.58,0.174,0.59.38,1.21,0.548,1.86,0.109,0.66.287,1.34,0.351,2.04s0.164,1.42.159,2.14c0.031,0.81.018,1.62-.019,2.41a2.7,2.7,0,0,0,.2-0.2A10.677,10.677,0,0,0,618.285,2041.73Zm-6.389,5.95c0.107,0.18.2,0.34,0.3,0.52a15.12,15.12,0,0,0-11.477,10.01l0.357,0.04a15.364,15.364,0,0,1,2.281.32,1.76,1.76,0,0,1,.359-0.96,4.334,4.334,0,0,1,3.6-1.73,24.147,24.147,0,0,1,7.047.8,5.7,5.7,0,0,0,3.891-.22c3.8-1.52,7.136-1.38,9.832.38,0.333,0.22.68,0.45,1.031,0.69a15.144,15.144,0,0,0-11.624-9.41c0.145-.25.284-0.51,0.445-0.77a2.876,2.876,0,0,0,.406-1.03,2.114,2.114,0,0,1-.016-0.28c-0.542.68-1.028,1.37-1.457,2.02-0.264-.03-0.535-0.04-0.8-0.06,0.138-1.02.253-2.11,0.307-3.25a2.74,2.74,0,0,1-.257.26,3.793,3.793,0,0,0-.5,1.39c-0.094.53-.2,1.04-0.306,1.54-0.094,0-.181-0.02-0.274-0.02a15.564,15.564,0,0,0-2.279.17c-0.38-.56-0.789-1.14-1.252-1.72a1.883,1.883,0,0,1-.017.27A2.829,2.829,0,0,0,611.9,2047.68Zm8.769-4.16c0.388-.37.828-0.67,1.218-0.99,0.419-.29.847-0.54,1.237-0.79q0.639-.285,1.193-0.54c0.389-.12.747-0.22,1.063-0.31a3.626,3.626,0,0,1,.836-0.14l0.732-.08s-0.264.05-.725,0.13a3.85,3.85,0,0,0-.811.2c-0.3.11-.646,0.24-1.018,0.37-0.345.19-.722,0.4-1.118,0.62-0.368.27-.761,0.54-1.144,0.85-0.361.34-.761,0.66-1.109,1.05a14.44,14.44,0,0,0-1.038,1.18,18.441,18.441,0,0,0-1.3,1.8c0.519,0.02,2.2-.2,2.932-0.29a12.24,12.24,0,0,0,2.553-.59,11.69,11.69,0,0,0,2.43-1.15,12.651,12.651,0,0,0,3.554-3.39,15.4,15.4,0,0,1,1.241-1.57c0.187-.18.375-0.39,0.509-0.49s0.216-.15.216-0.15-0.048-.09-0.139-0.25a2.588,2.588,0,0,0-.506-0.6,5.29,5.29,0,0,0-2.375-1.15,7.993,7.993,0,0,0-3.3-.01,9.446,9.446,0,0,0-7.059,6.13,8.011,8.011,0,0,0-.425,2.47c0,0.07.009,0.14,0.013,0.21,0.375-.47.77-0.93,1.192-1.39C619.864,2044.25,620.28,2043.89,620.665,2043.52Zm-22.23-3.31a15.689,15.689,0,0,1,1.239,1.57,12.777,12.777,0,0,0,3.554,3.39,11.611,11.611,0,0,0,2.432,1.15,12.191,12.191,0,0,0,2.549.59c0.736,0.09,2.416.31,2.933,0.29a17.927,17.927,0,0,0-1.3-1.81c-0.315-.42-0.688-0.79-1.035-1.18s-0.75-.7-1.108-1.04c-0.385-.31-0.781-0.58-1.146-0.85-0.395-.22-0.773-0.43-1.118-0.62-0.373-.14-0.715-0.26-1.017-0.38a4.471,4.471,0,0,0-.813-0.19c-0.461-.08-0.722-0.13-0.722-0.13l0.73,0.08a4.177,4.177,0,0,1,.837.13c0.315,0.09.671,0.2,1.061,0.31,0.371,0.17.77,0.36,1.194,0.55,0.391,0.25.817,0.5,1.238,0.79,0.391,0.32.83,0.62,1.217,0.99s0.8,0.72,1.154,1.13c0.422,0.45.817,0.92,1.192,1.39,0-.07.017-0.14,0.013-0.22a7.942,7.942,0,0,0-.425-2.46,8.884,8.884,0,0,0-1.452-2.66,9.456,9.456,0,0,0-5.608-3.47,8,8,0,0,0-3.3,0,5.408,5.408,0,0,0-2.376,1.16,2.6,2.6,0,0,0-.507.6c-0.089.16-.138,0.24-0.138,0.24s0.074,0.06.214,0.16S598.247,2040.03,598.435,2040.21Zm36.935,25.09a31.982,31.982,0,0,0-8.566-7.59c-2.6-1.69-5.561-1.33-8.318-.22a7.405,7.405,0,0,1-4.985.26,22.747,22.747,0,0,0-6.555-.73,2.729,2.729,0,0,0-2.3,1.07c-0.315.42,2.266,2.15,4.48,2.15-0.411.82-7.567-.92-8.521-0.85l-5.413-.69c-1.924-.16-1.921-0.88-3.814.18a0.465,0.465,0,0,1-.236.04,2.4,2.4,0,0,0-2.232.97,1.291,1.291,0,0,0-.131,1.36,1.267,1.267,0,0,0,1.07.52,36.883,36.883,0,0,0,6.484,2.24c2.335,0.58,4.61,1.28,6.942,1.81a10.158,10.158,0,0,1,2.813.87,10.658,10.658,0,0,0,5.92,1.26c2.395-.11,4.795-0.01,7.2-0.03a10.253,10.253,0,0,1,9.577,5.38l13.548-.03C639.375,2069.81,638.07,2068.97,635.37,2065.3Z" transform="translate(-588.656 -2025.69)"/>
</svg>
